{
	"asset":{
		"generator":"Khronos glTF Blender I/O v4.0.44",
		"version":"2.0"
	},
	"scene":0,
	"scenes":[
		{
			"name":"Scene",
			"nodes":[
				0,
				1,
				2,
				3
			]
		}
	],
	"nodes":[
		{
			"mesh":0,
			"name":"Boat Small",
			"translation":[
				9.104113578796387,
				0.00016069412231445312,
				-0.16408786177635193
			]
		},
		{
			"mesh":1,
			"name":"Subrine",
			"rotation":[
				0,
				-1,
				0,
				1.6292068494294654e-07
			],
			"translation":[
				-2.1523380279541016,
				0.00016021728515625,
				-1.4577475786209106
			]
		},
		{
			"mesh":2,
			"name":"Plane",
			"translation":[
				2.020538568496704,
				0.004372119903564453,
				-3.1614668369293213
			]
		},
		{
			"mesh":3,
			"name":"Plane.001",
			"translation":[
				5.79975700378418,
				0.004372119903564453,
				-3.1614668369293213
			]
		}
	],
	"materials":[
		{
			"doubleSided":true,
			"name":"Master Pallet",
			"pbrMetallicRoughness":{
				"baseColorTexture":{
					"index":0
				},
				"metallicFactor":0,
				"roughnessFactor":0.5
			}
		},
		{
			"doubleSided":true,
			"name":"House_Mat",
			"pbrMetallicRoughness":{
				"baseColorFactor":[
					1,
					0.7541071772575378,
					0.5165642499923706,
					1
				],
				"metallicFactor":0,
				"roughnessFactor":0.3181818127632141
			}
		}
	],
	"meshes":[
		{
			"name":"Sphere.002",
			"primitives":[
				{
					"attributes":{
						"POSITION":0,
						"NORMAL":1,
						"TEXCOORD_0":2
					},
					"indices":3,
					"material":0
				},
				{
					"attributes":{
						"POSITION":4,
						"NORMAL":5,
						"TEXCOORD_0":6
					},
					"indices":7,
					"material":1
				}
			]
		},
		{
			"name":"Sphere.005",
			"primitives":[
				{
					"attributes":{
						"POSITION":8,
						"NORMAL":9,
						"TEXCOORD_0":10
					},
					"indices":11,
					"material":0
				}
			]
		},
		{
			"name":"Plane",
			"primitives":[
				{
					"attributes":{
						"POSITION":12,
						"NORMAL":13,
						"TEXCOORD_0":14
					},
					"indices":15,
					"material":0
				}
			]
		},
		{
			"name":"Plane.004",
			"primitives":[
				{
					"attributes":{
						"POSITION":16,
						"NORMAL":17,
						"TEXCOORD_0":18
					},
					"indices":19,
					"material":0
				}
			]
		}
	],
	"textures":[
		{
			"sampler":0,
			"source":0
		}
	],
	"images":[
		{
			"mimeType":"image/png",
			"name":"256-Gradient",
			"uri":"256-Gradient.png"
		}
	],
	"accessors":[
		{
			"bufferView":0,
			"componentType":5126,
			"count":1201,
			"max":[
				0.829246461391449,
				1.4516834020614624,
				2.067687511444092
			],
			"min":[
				-0.8292465806007385,
				-0.5457459688186646,
				-2.067687511444092
			],
			"type":"VEC3"
		},
		{
			"bufferView":1,
			"componentType":5126,
			"count":1201,
			"type":"VEC3"
		},
		{
			"bufferView":2,
			"componentType":5126,
			"count":1201,
			"type":"VEC2"
		},
		{
			"bufferView":3,
			"componentType":5123,
			"count":2610,
			"type":"SCALAR"
		},
		{
			"bufferView":4,
			"componentType":5126,
			"count":84,
			"max":[
				0.3134228587150574,
				1.5530166625976562,
				1.3032184839248657
			],
			"min":[
				-0.3973093628883362,
				0.5892329812049866,
				0.5331412553787231
			],
			"type":"VEC3"
		},
		{
			"bufferView":5,
			"componentType":5126,
			"count":84,
			"type":"VEC3"
		},
		{
			"bufferView":6,
			"componentType":5126,
			"count":84,
			"type":"VEC2"
		},
		{
			"bufferView":7,
			"componentType":5123,
			"count":228,
			"type":"SCALAR"
		},
		{
			"bufferView":8,
			"componentType":5126,
			"count":544,
			"max":[
				1.344228982925415,
				2.298877000808716,
				5.761475563049316
			],
			"min":[
				-1.335315465927124,
				-1.9818544387817383,
				-3.5958499908447266
			],
			"type":"VEC3"
		},
		{
			"bufferView":9,
			"componentType":5126,
			"count":544,
			"type":"VEC3"
		},
		{
			"bufferView":10,
			"componentType":5126,
			"count":544,
			"type":"VEC2"
		},
		{
			"bufferView":11,
			"componentType":5123,
			"count":3240,
			"type":"SCALAR"
		},
		{
			"bufferView":12,
			"componentType":5126,
			"count":524,
			"max":[
				1.3397725820541382,
				1.526386022567749,
				5.359092712402344
			],
			"min":[
				-1.3397729396820068,
				-0.03260871767997742,
				-5.3590898513793945
			],
			"type":"VEC3"
		},
		{
			"bufferView":13,
			"componentType":5126,
			"count":524,
			"type":"VEC3"
		},
		{
			"bufferView":14,
			"componentType":5126,
			"count":524,
			"type":"VEC2"
		},
		{
			"bufferView":15,
			"componentType":5123,
			"count":1140,
			"type":"SCALAR"
		},
		{
			"bufferView":16,
			"componentType":5126,
			"count":765,
			"max":[
				1.2080055475234985,
				1.4336340427398682,
				5.441493511199951
			],
			"min":[
				-1.2080055475234985,
				-2.994625276642182e-07,
				-5.36259651184082
			],
			"type":"VEC3"
		},
		{
			"bufferView":17,
			"componentType":5126,
			"count":765,
			"type":"VEC3"
		},
		{
			"bufferView":18,
			"componentType":5126,
			"count":765,
			"type":"VEC2"
		},
		{
			"bufferView":19,
			"componentType":5123,
			"count":1728,
			"type":"SCALAR"
		}
	],
	"bufferViews":[
		{
			"buffer":0,
			"byteLength":14412,
			"byteOffset":0,
			"target":34962
		},
		{
			"buffer":0,
			"byteLength":14412,
			"byteOffset":14412,
			"target":34962
		},
		{
			"buffer":0,
			"byteLength":9608,
			"byteOffset":28824,
			"target":34962
		},
		{
			"buffer":0,
			"byteLength":5220,
			"byteOffset":38432,
			"target":34963
		},
		{
			"buffer":0,
			"byteLength":1008,
			"byteOffset":43652,
			"target":34962
		},
		{
			"buffer":0,
			"byteLength":1008,
			"byteOffset":44660,
			"target":34962
		},
		{
			"buffer":0,
			"byteLength":672,
			"byteOffset":45668,
			"target":34962
		},
		{
			"buffer":0,
			"byteLength":456,
			"byteOffset":46340,
			"target":34963
		},
		{
			"buffer":0,
			"byteLength":6528,
			"byteOffset":46796,
			"target":34962
		},
		{
			"buffer":0,
			"byteLength":6528,
			"byteOffset":53324,
			"target":34962
		},
		{
			"buffer":0,
			"byteLength":4352,
			"byteOffset":59852,
			"target":34962
		},
		{
			"buffer":0,
			"byteLength":6480,
			"byteOffset":64204,
			"target":34963
		},
		{
			"buffer":0,
			"byteLength":6288,
			"byteOffset":70684,
			"target":34962
		},
		{
			"buffer":0,
			"byteLength":6288,
			"byteOffset":76972,
			"target":34962
		},
		{
			"buffer":0,
			"byteLength":4192,
			"byteOffset":83260,
			"target":34962
		},
		{
			"buffer":0,
			"byteLength":2280,
			"byteOffset":87452,
			"target":34963
		},
		{
			"buffer":0,
			"byteLength":9180,
			"byteOffset":89732,
			"target":34962
		},
		{
			"buffer":0,
			"byteLength":9180,
			"byteOffset":98912,
			"target":34962
		},
		{
			"buffer":0,
			"byteLength":6120,
			"byteOffset":108092,
			"target":34962
		},
		{
			"buffer":0,
			"byteLength":3456,
			"byteOffset":114212,
			"target":34963
		}
	],
	"samplers":[
		{
			"magFilter":9729,
			"minFilter":9987
		}
	],
	"buffers":[
		{
			"byteLength":117668,
			"uri":"boats0.2.bin"
		}
	]
}
