{
	"asset":{
		"generator":"Khronos glTF Blender I/O v4.0.44",
		"version":"2.0"
	},
	"scene":0,
	"scenes":[
		{
			"name":"Scene",
			"nodes":[
				0,
				1,
				2
			]
		}
	],
	"nodes":[
		{
			"mesh":0,
			"name":"Cube One"
		},
		{
			"mesh":1,
			"name":"Cube Three",
			"translation":[
				-4,
				4,
				-4
			]
		},
		{
			"mesh":2,
			"name":"Cube Two",
			"translation":[
				-1.9999998807907104,
				2,
				-2
			]
		}
	],
	"materials":[
		{
			"doubleSided":true,
			"name":"Material.001",
			"pbrMetallicRoughness":{
				"baseColorFactor":[
					0.8000000715255737,
					0.612732470035553,
					0.21583224833011627,
					1
				],
				"metallicFactor":0,
				"roughnessFactor":0.5
			}
		},
		{
			"doubleSided":true,
			"name":"Material.000",
			"pbrMetallicRoughness":{
				"baseColorFactor":[
					0.5121604204177856,
					0.2498510330915451,
					0.047536738216876984,
					1
				],
				"metallicFactor":0,
				"roughnessFactor":0.5
			}
		},
		{
			"doubleSided":true,
			"name":"Material.004",
			"pbrMetallicRoughness":{
				"baseColorFactor":[
					0.2271013706922531,
					0.21092717349529266,
					0.8000000715255737,
					1
				],
				"metallicFactor":0,
				"roughnessFactor":0.5
			}
		},
		{
			"doubleSided":true,
			"name":"Material.005",
			"pbrMetallicRoughness":{
				"baseColorFactor":[
					0.11857904493808746,
					0.11040586233139038,
					0.40435826778411865,
					1
				],
				"metallicFactor":0,
				"roughnessFactor":0.5
			}
		},
		{
			"doubleSided":true,
			"name":"Material.002",
			"pbrMetallicRoughness":{
				"baseColorFactor":[
					0.05938010290265083,
					0.5121604204177856,
					0.036615610122680664,
					1
				],
				"metallicFactor":0,
				"roughnessFactor":0.5
			}
		},
		{
			"doubleSided":true,
			"name":"Material.003",
			"pbrMetallicRoughness":{
				"baseColorFactor":[
					0.26268383860588074,
					0.8000000715255737,
					0.2012937366962433,
					1
				],
				"metallicFactor":0,
				"roughnessFactor":0.5
			}
		}
	],
	"meshes":[
		{
			"name":"Cube.002",
			"primitives":[
				{
					"attributes":{
						"POSITION":0,
						"NORMAL":1,
						"TEXCOORD_0":2
					},
					"indices":3,
					"material":0
				},
				{
					"attributes":{
						"POSITION":4,
						"NORMAL":5,
						"TEXCOORD_0":6
					},
					"indices":7,
					"material":1
				}
			]
		},
		{
			"name":"Cube.003",
			"primitives":[
				{
					"attributes":{
						"POSITION":8,
						"NORMAL":9,
						"TEXCOORD_0":10
					},
					"indices":11,
					"material":2
				},
				{
					"attributes":{
						"POSITION":12,
						"NORMAL":13,
						"TEXCOORD_0":14
					},
					"indices":15,
					"material":3
				}
			]
		},
		{
			"name":"Cube.004",
			"primitives":[
				{
					"attributes":{
						"POSITION":16,
						"NORMAL":17,
						"TEXCOORD_0":18
					},
					"indices":19,
					"material":4
				},
				{
					"attributes":{
						"POSITION":20,
						"NORMAL":21,
						"TEXCOORD_0":22
					},
					"indices":23,
					"material":5
				}
			]
		}
	],
	"accessors":[
		{
			"bufferView":0,
			"componentType":5126,
			"count":380,
			"max":[
				0.011382066644728184,
				2,
				0.011382066644728184
			],
			"min":[
				-1.988618016242981,
				0,
				-1.988618016242981
			],
			"type":"VEC3"
		},
		{
			"bufferView":1,
			"componentType":5126,
			"count":380,
			"type":"VEC3"
		},
		{
			"bufferView":2,
			"componentType":5126,
			"count":380,
			"type":"VEC2"
		},
		{
			"bufferView":3,
			"componentType":5123,
			"count":576,
			"type":"SCALAR"
		},
		{
			"bufferView":4,
			"componentType":5126,
			"count":384,
			"max":[
				-0.7203253507614136,
				1.0243902206420898,
				-0.7203252911567688
			],
			"min":[
				-0.8829270005226135,
				0.373983770608902,
				-0.8829269409179688
			],
			"type":"VEC3"
		},
		{
			"bufferView":5,
			"componentType":5126,
			"count":384,
			"type":"VEC3"
		},
		{
			"bufferView":6,
			"componentType":5126,
			"count":384,
			"type":"VEC2"
		},
		{
			"bufferView":7,
			"componentType":5123,
			"count":528,
			"type":"SCALAR"
		},
		{
			"bufferView":8,
			"componentType":5126,
			"count":380,
			"max":[
				0.011382066644728184,
				2.000000238418579,
				0.01138198934495449
			],
			"min":[
				-1.988618016242981,
				3.1013809120850055e-07,
				-1.988618016242981
			],
			"type":"VEC3"
		},
		{
			"bufferView":9,
			"componentType":5126,
			"count":380,
			"type":"VEC3"
		},
		{
			"bufferView":10,
			"componentType":5126,
			"count":380,
			"type":"VEC2"
		},
		{
			"bufferView":11,
			"componentType":5123,
			"count":576,
			"type":"SCALAR"
		},
		{
			"bufferView":12,
			"componentType":5126,
			"count":672,
			"max":[
				-0.6868111491203308,
				1.170732855796814,
				-0.6055123209953308
			],
			"min":[
				-0.8496609330177307,
				0.35772383213043213,
				-1.0933175086975098
			],
			"type":"VEC3"
		},
		{
			"bufferView":13,
			"componentType":5126,
			"count":672,
			"type":"VEC3"
		},
		{
			"bufferView":14,
			"componentType":5126,
			"count":672,
			"type":"VEC2"
		},
		{
			"bufferView":15,
			"componentType":5123,
			"count":924,
			"type":"SCALAR"
		},
		{
			"bufferView":16,
			"componentType":5126,
			"count":1056,
			"max":[
				-0.52420973777771,
				1.2195122241973877,
				-0.7681139707565308
			],
			"min":[
				-1.1746163368225098,
				0.4065040051937103,
				-0.9307162761688232
			],
			"type":"VEC3"
		},
		{
			"bufferView":17,
			"componentType":5126,
			"count":1056,
			"type":"VEC3"
		},
		{
			"bufferView":18,
			"componentType":5126,
			"count":1056,
			"type":"VEC2"
		},
		{
			"bufferView":19,
			"componentType":5123,
			"count":1452,
			"type":"SCALAR"
		},
		{
			"bufferView":20,
			"componentType":5126,
			"count":380,
			"max":[
				0.011382066644728184,
				2,
				0.01138198934495449
			],
			"min":[
				-1.988618016242981,
				0,
				-1.988618016242981
			],
			"type":"VEC3"
		},
		{
			"bufferView":21,
			"componentType":5126,
			"count":380,
			"type":"VEC3"
		},
		{
			"bufferView":22,
			"componentType":5126,
			"count":380,
			"type":"VEC2"
		},
		{
			"bufferView":23,
			"componentType":5123,
			"count":576,
			"type":"SCALAR"
		}
	],
	"bufferViews":[
		{
			"buffer":0,
			"byteLength":4560,
			"byteOffset":0,
			"target":34962
		},
		{
			"buffer":0,
			"byteLength":4560,
			"byteOffset":4560,
			"target":34962
		},
		{
			"buffer":0,
			"byteLength":3040,
			"byteOffset":9120,
			"target":34962
		},
		{
			"buffer":0,
			"byteLength":1152,
			"byteOffset":12160,
			"target":34963
		},
		{
			"buffer":0,
			"byteLength":4608,
			"byteOffset":13312,
			"target":34962
		},
		{
			"buffer":0,
			"byteLength":4608,
			"byteOffset":17920,
			"target":34962
		},
		{
			"buffer":0,
			"byteLength":3072,
			"byteOffset":22528,
			"target":34962
		},
		{
			"buffer":0,
			"byteLength":1056,
			"byteOffset":25600,
			"target":34963
		},
		{
			"buffer":0,
			"byteLength":4560,
			"byteOffset":26656,
			"target":34962
		},
		{
			"buffer":0,
			"byteLength":4560,
			"byteOffset":31216,
			"target":34962
		},
		{
			"buffer":0,
			"byteLength":3040,
			"byteOffset":35776,
			"target":34962
		},
		{
			"buffer":0,
			"byteLength":1152,
			"byteOffset":38816,
			"target":34963
		},
		{
			"buffer":0,
			"byteLength":8064,
			"byteOffset":39968,
			"target":34962
		},
		{
			"buffer":0,
			"byteLength":8064,
			"byteOffset":48032,
			"target":34962
		},
		{
			"buffer":0,
			"byteLength":5376,
			"byteOffset":56096,
			"target":34962
		},
		{
			"buffer":0,
			"byteLength":1848,
			"byteOffset":61472,
			"target":34963
		},
		{
			"buffer":0,
			"byteLength":12672,
			"byteOffset":63320,
			"target":34962
		},
		{
			"buffer":0,
			"byteLength":12672,
			"byteOffset":75992,
			"target":34962
		},
		{
			"buffer":0,
			"byteLength":8448,
			"byteOffset":88664,
			"target":34962
		},
		{
			"buffer":0,
			"byteLength":2904,
			"byteOffset":97112,
			"target":34963
		},
		{
			"buffer":0,
			"byteLength":4560,
			"byteOffset":100016,
			"target":34962
		},
		{
			"buffer":0,
			"byteLength":4560,
			"byteOffset":104576,
			"target":34962
		},
		{
			"buffer":0,
			"byteLength":3040,
			"byteOffset":109136,
			"target":34962
		},
		{
			"buffer":0,
			"byteLength":1152,
			"byteOffset":112176,
			"target":34963
		}
	],
	"buffers":[
		{
			"byteLength":113328,
			"uri":"prototype3.bin"
		}
	]
}
